<mxfile host="" modified="2020-06-14T07:53:10.040Z" agent="5.0 (Windows NT 10.0; Win64; x64) AppleWebKit/537.36 (KHTML, like Gecko) Code/1.46.0 Chrome/78.0.3904.130 Electron/7.3.1 Safari/537.36" etag="XAqLaJ2YMIuD6p4MIQns" version="13.1.3" pages="3">
    <diagram id="6hGFLwfOUW9BJ-s0fimq" name="process message">
        <mxGraphModel dx="799" dy="663" grid="1" gridSize="10" guides="1" tooltips="1" connect="1" arrows="1" fold="1" page="1" pageScale="1" pageWidth="827" pageHeight="1169" math="0" shadow="0">
            <root>
                <mxCell id="0"/>
                <mxCell id="1" parent="0"/>
                <mxCell id="24" value="Process&lt;br&gt;parsed text" style="shape=process;whiteSpace=wrap;html=1;backgroundOutline=1;" parent="1" vertex="1">
                    <mxGeometry x="40" y="760" width="120" height="80" as="geometry"/>
                </mxCell>
                <mxCell id="5hCIpTgkA4e_dHlcpvVI-35" style="edgeStyle=orthogonalEdgeStyle;rounded=0;orthogonalLoop=1;jettySize=auto;html=1;exitX=0.5;exitY=1;exitDx=0;exitDy=0;entryX=0.5;entryY=0;entryDx=0;entryDy=0;" parent="1" source="27" target="5hCIpTgkA4e_dHlcpvVI-31" edge="1">
                    <mxGeometry relative="1" as="geometry"/>
                </mxCell>
                <mxCell id="27" value="Message" style="rounded=1;whiteSpace=wrap;html=1;" parent="1" vertex="1">
                    <mxGeometry x="40" y="40" width="120" height="80" as="geometry"/>
                </mxCell>
                <mxCell id="ih-mNc5Shw5QJN74bIYA-37" value="Log&lt;br&gt;and exit" style="shape=note;whiteSpace=wrap;html=1;backgroundOutline=1;darkOpacity=0.05;" parent="1" vertex="1">
                    <mxGeometry x="240" y="160" width="120" height="80" as="geometry"/>
                </mxCell>
                <mxCell id="5hCIpTgkA4e_dHlcpvVI-36" style="edgeStyle=orthogonalEdgeStyle;rounded=0;orthogonalLoop=1;jettySize=auto;html=1;exitX=0.5;exitY=1;exitDx=0;exitDy=0;entryX=0.5;entryY=0;entryDx=0;entryDy=0;" parent="1" source="5hCIpTgkA4e_dHlcpvVI-31" target="5hCIpTgkA4e_dHlcpvVI-32" edge="1">
                    <mxGeometry relative="1" as="geometry"/>
                </mxCell>
                <mxCell id="5hCIpTgkA4e_dHlcpvVI-40" style="edgeStyle=orthogonalEdgeStyle;rounded=0;orthogonalLoop=1;jettySize=auto;html=1;exitX=1;exitY=0.5;exitDx=0;exitDy=0;entryX=0;entryY=0.5;entryDx=0;entryDy=0;entryPerimeter=0;" parent="1" source="5hCIpTgkA4e_dHlcpvVI-31" target="ih-mNc5Shw5QJN74bIYA-37" edge="1">
                    <mxGeometry relative="1" as="geometry"/>
                </mxCell>
                <mxCell id="5hCIpTgkA4e_dHlcpvVI-43" value="no" style="edgeLabel;html=1;align=center;verticalAlign=middle;resizable=0;points=[];" parent="5hCIpTgkA4e_dHlcpvVI-40" vertex="1" connectable="0">
                    <mxGeometry x="-0.2" relative="1" as="geometry">
                        <mxPoint x="20" as="offset"/>
                    </mxGeometry>
                </mxCell>
                <mxCell id="5hCIpTgkA4e_dHlcpvVI-31" value="Attachment?" style="ellipse;whiteSpace=wrap;html=1;aspect=fixed;" parent="1" vertex="1">
                    <mxGeometry x="60" y="160" width="80" height="80" as="geometry"/>
                </mxCell>
                <mxCell id="5hCIpTgkA4e_dHlcpvVI-37" style="edgeStyle=orthogonalEdgeStyle;rounded=0;orthogonalLoop=1;jettySize=auto;html=1;exitX=0.5;exitY=1;exitDx=0;exitDy=0;entryX=0.5;entryY=0;entryDx=0;entryDy=0;" parent="1" source="5hCIpTgkA4e_dHlcpvVI-32" target="5hCIpTgkA4e_dHlcpvVI-33" edge="1">
                    <mxGeometry relative="1" as="geometry"/>
                </mxCell>
                <mxCell id="5hCIpTgkA4e_dHlcpvVI-41" style="edgeStyle=orthogonalEdgeStyle;rounded=0;orthogonalLoop=1;jettySize=auto;html=1;exitX=1;exitY=0.5;exitDx=0;exitDy=0;entryX=0.5;entryY=1;entryDx=0;entryDy=0;entryPerimeter=0;" parent="1" source="5hCIpTgkA4e_dHlcpvVI-32" target="ih-mNc5Shw5QJN74bIYA-37" edge="1">
                    <mxGeometry relative="1" as="geometry"/>
                </mxCell>
                <mxCell id="5hCIpTgkA4e_dHlcpvVI-45" value="no" style="edgeLabel;html=1;align=center;verticalAlign=middle;resizable=0;points=[];" parent="5hCIpTgkA4e_dHlcpvVI-41" vertex="1" connectable="0">
                    <mxGeometry x="-0.4667" y="2" relative="1" as="geometry">
                        <mxPoint x="-3.81" y="2" as="offset"/>
                    </mxGeometry>
                </mxCell>
                <mxCell id="5hCIpTgkA4e_dHlcpvVI-32" value="Pdf?" style="ellipse;whiteSpace=wrap;html=1;aspect=fixed;" parent="1" vertex="1">
                    <mxGeometry x="60" y="280" width="80" height="80" as="geometry"/>
                </mxCell>
                <mxCell id="5hCIpTgkA4e_dHlcpvVI-38" style="edgeStyle=orthogonalEdgeStyle;rounded=0;orthogonalLoop=1;jettySize=auto;html=1;exitX=0.5;exitY=1;exitDx=0;exitDy=0;entryX=0.5;entryY=0;entryDx=0;entryDy=0;" parent="1" source="5hCIpTgkA4e_dHlcpvVI-33" target="5hCIpTgkA4e_dHlcpvVI-34" edge="1">
                    <mxGeometry relative="1" as="geometry"/>
                </mxCell>
                <mxCell id="5hCIpTgkA4e_dHlcpvVI-42" style="edgeStyle=orthogonalEdgeStyle;rounded=0;orthogonalLoop=1;jettySize=auto;html=1;exitX=1;exitY=0.5;exitDx=0;exitDy=0;entryX=0.5;entryY=1;entryDx=0;entryDy=0;entryPerimeter=0;" parent="1" source="5hCIpTgkA4e_dHlcpvVI-33" target="ih-mNc5Shw5QJN74bIYA-37" edge="1">
                    <mxGeometry relative="1" as="geometry"/>
                </mxCell>
                <mxCell id="5hCIpTgkA4e_dHlcpvVI-46" value="no" style="edgeLabel;html=1;align=center;verticalAlign=middle;resizable=0;points=[];" parent="5hCIpTgkA4e_dHlcpvVI-42" vertex="1" connectable="0">
                    <mxGeometry x="-0.6556" y="2" relative="1" as="geometry">
                        <mxPoint x="-1.9" y="2" as="offset"/>
                    </mxGeometry>
                </mxCell>
                <mxCell id="5hCIpTgkA4e_dHlcpvVI-33" value="Parsable?" style="ellipse;whiteSpace=wrap;html=1;aspect=fixed;" parent="1" vertex="1">
                    <mxGeometry x="60" y="400" width="80" height="80" as="geometry"/>
                </mxCell>
                <mxCell id="5hCIpTgkA4e_dHlcpvVI-52" value="" style="edgeStyle=orthogonalEdgeStyle;rounded=0;orthogonalLoop=1;jettySize=auto;html=1;" parent="1" source="5hCIpTgkA4e_dHlcpvVI-34" target="5hCIpTgkA4e_dHlcpvVI-51" edge="1">
                    <mxGeometry relative="1" as="geometry"/>
                </mxCell>
                <mxCell id="5hCIpTgkA4e_dHlcpvVI-34" value="Parse" style="rounded=0;whiteSpace=wrap;html=1;" parent="1" vertex="1">
                    <mxGeometry x="40" y="520" width="120" height="80" as="geometry"/>
                </mxCell>
                <mxCell id="5hCIpTgkA4e_dHlcpvVI-53" value="" style="edgeStyle=orthogonalEdgeStyle;rounded=0;orthogonalLoop=1;jettySize=auto;html=1;" parent="1" source="5hCIpTgkA4e_dHlcpvVI-51" target="24" edge="1">
                    <mxGeometry relative="1" as="geometry"/>
                </mxCell>
                <mxCell id="5hCIpTgkA4e_dHlcpvVI-51" value="&lt;span&gt;Store&lt;/span&gt;&lt;br&gt;&lt;span&gt;parsed&lt;/span&gt;&lt;br&gt;&lt;span&gt;text&lt;/span&gt;" style="shape=dataStorage;whiteSpace=wrap;html=1;" parent="1" vertex="1">
                    <mxGeometry x="40" y="640" width="120" height="80" as="geometry"/>
                </mxCell>
            </root>
        </mxGraphModel>
    </diagram>
    <diagram id="X0i2umhpxy6HBcnnzET7" name="process parsed text">
        <mxGraphModel dx="799" dy="663" grid="1" gridSize="10" guides="1" tooltips="1" connect="1" arrows="1" fold="1" page="1" pageScale="1" pageWidth="850" pageHeight="1100" math="0" shadow="0">
            <root>
                <mxCell id="o7PPtioLwJm91Y4R-C-H-0"/>
                <mxCell id="o7PPtioLwJm91Y4R-C-H-1" parent="o7PPtioLwJm91Y4R-C-H-0"/>
                <mxCell id="o7PPtioLwJm91Y4R-C-H-33" style="edgeStyle=orthogonalEdgeStyle;rounded=0;orthogonalLoop=1;jettySize=auto;html=1;exitX=1;exitY=0.5;exitDx=0;exitDy=0;entryX=0;entryY=0.5;entryDx=0;entryDy=0;" parent="o7PPtioLwJm91Y4R-C-H-1" source="o7PPtioLwJm91Y4R-C-H-3" target="o7PPtioLwJm91Y4R-C-H-5" edge="1">
                    <mxGeometry relative="1" as="geometry"/>
                </mxCell>
                <mxCell id="o7PPtioLwJm91Y4R-C-H-35" style="edgeStyle=orthogonalEdgeStyle;rounded=0;orthogonalLoop=1;jettySize=auto;html=1;exitX=0.5;exitY=1;exitDx=0;exitDy=0;entryX=0;entryY=0.5;entryDx=0;entryDy=0;" parent="o7PPtioLwJm91Y4R-C-H-1" source="o7PPtioLwJm91Y4R-C-H-3" target="o7PPtioLwJm91Y4R-C-H-34" edge="1">
                    <mxGeometry relative="1" as="geometry"/>
                </mxCell>
                <mxCell id="o7PPtioLwJm91Y4R-C-H-3" value="Parsed text" style="rounded=1;whiteSpace=wrap;html=1;" parent="o7PPtioLwJm91Y4R-C-H-1" vertex="1">
                    <mxGeometry x="40" y="40" width="120" height="80" as="geometry"/>
                </mxCell>
                <mxCell id="o7PPtioLwJm91Y4R-C-H-31" value="" style="edgeStyle=orthogonalEdgeStyle;rounded=0;orthogonalLoop=1;jettySize=auto;html=1;" parent="o7PPtioLwJm91Y4R-C-H-1" source="o7PPtioLwJm91Y4R-C-H-5" target="o7PPtioLwJm91Y4R-C-H-7" edge="1">
                    <mxGeometry relative="1" as="geometry"/>
                </mxCell>
                <mxCell id="o7PPtioLwJm91Y4R-C-H-5" value="Remove&lt;br&gt;whitespace" style="rounded=0;whiteSpace=wrap;html=1;" parent="o7PPtioLwJm91Y4R-C-H-1" vertex="1">
                    <mxGeometry x="200" y="40" width="120" height="80" as="geometry"/>
                </mxCell>
                <mxCell id="o7PPtioLwJm91Y4R-C-H-40" value="" style="edgeStyle=orthogonalEdgeStyle;rounded=0;orthogonalLoop=1;jettySize=auto;html=1;" parent="o7PPtioLwJm91Y4R-C-H-1" source="o7PPtioLwJm91Y4R-C-H-7" target="o7PPtioLwJm91Y4R-C-H-9" edge="1">
                    <mxGeometry relative="1" as="geometry"/>
                </mxCell>
                <mxCell id="o7PPtioLwJm91Y4R-C-H-7" value="Replace month names with month numbers" style="rounded=0;whiteSpace=wrap;html=1;" parent="o7PPtioLwJm91Y4R-C-H-1" vertex="1">
                    <mxGeometry x="360" y="40" width="120" height="80" as="geometry"/>
                </mxCell>
                <mxCell id="o7PPtioLwJm91Y4R-C-H-23" style="edgeStyle=orthogonalEdgeStyle;rounded=0;orthogonalLoop=1;jettySize=auto;html=1;exitX=0.5;exitY=1;exitDx=0;exitDy=0;entryX=0.5;entryY=0;entryDx=0;entryDy=0;" parent="o7PPtioLwJm91Y4R-C-H-1" source="o7PPtioLwJm91Y4R-C-H-9" target="o7PPtioLwJm91Y4R-C-H-14" edge="1">
                    <mxGeometry relative="1" as="geometry"/>
                </mxCell>
                <mxCell id="o7PPtioLwJm91Y4R-C-H-9" value="Find all datestrings&lt;br&gt;in parsed text" style="rounded=0;whiteSpace=wrap;html=1;" parent="o7PPtioLwJm91Y4R-C-H-1" vertex="1">
                    <mxGeometry x="360" y="160" width="120" height="80" as="geometry"/>
                </mxCell>
                <mxCell id="o7PPtioLwJm91Y4R-C-H-25" style="edgeStyle=orthogonalEdgeStyle;rounded=0;orthogonalLoop=1;jettySize=auto;html=1;exitX=0.5;exitY=1;exitDx=0;exitDy=0;entryX=0.5;entryY=0;entryDx=0;entryDy=0;" parent="o7PPtioLwJm91Y4R-C-H-1" source="o7PPtioLwJm91Y4R-C-H-11" target="o7PPtioLwJm91Y4R-C-H-18" edge="1">
                    <mxGeometry relative="1" as="geometry"/>
                </mxCell>
                <mxCell id="o7PPtioLwJm91Y4R-C-H-11" value="Get earliest date" style="rounded=0;whiteSpace=wrap;html=1;" parent="o7PPtioLwJm91Y4R-C-H-1" vertex="1">
                    <mxGeometry x="360" y="400" width="120" height="80" as="geometry"/>
                </mxCell>
                <mxCell id="o7PPtioLwJm91Y4R-C-H-24" style="edgeStyle=orthogonalEdgeStyle;rounded=0;orthogonalLoop=1;jettySize=auto;html=1;exitX=0.5;exitY=1;exitDx=0;exitDy=0;entryX=0.5;entryY=0;entryDx=0;entryDy=0;" parent="o7PPtioLwJm91Y4R-C-H-1" source="o7PPtioLwJm91Y4R-C-H-14" target="o7PPtioLwJm91Y4R-C-H-11" edge="1">
                    <mxGeometry relative="1" as="geometry"/>
                </mxCell>
                <mxCell id="o7PPtioLwJm91Y4R-C-H-28" style="edgeStyle=orthogonalEdgeStyle;rounded=0;orthogonalLoop=1;jettySize=auto;html=1;exitX=1;exitY=0.5;exitDx=0;exitDy=0;entryX=0;entryY=0.5;entryDx=0;entryDy=0;entryPerimeter=0;" parent="o7PPtioLwJm91Y4R-C-H-1" source="o7PPtioLwJm91Y4R-C-H-14" target="o7PPtioLwJm91Y4R-C-H-15" edge="1">
                    <mxGeometry relative="1" as="geometry"/>
                </mxCell>
                <mxCell id="o7PPtioLwJm91Y4R-C-H-45" value="no" style="edgeLabel;html=1;align=center;verticalAlign=middle;resizable=0;points=[];" parent="o7PPtioLwJm91Y4R-C-H-28" vertex="1" connectable="0">
                    <mxGeometry x="0.24" relative="1" as="geometry">
                        <mxPoint x="-2.29" as="offset"/>
                    </mxGeometry>
                </mxCell>
                <mxCell id="o7PPtioLwJm91Y4R-C-H-14" value="Dates&lt;br&gt;found?" style="ellipse;whiteSpace=wrap;html=1;aspect=fixed;" parent="o7PPtioLwJm91Y4R-C-H-1" vertex="1">
                    <mxGeometry x="380" y="280" width="80" height="80" as="geometry"/>
                </mxCell>
                <mxCell id="o7PPtioLwJm91Y4R-C-H-15" value="Log&lt;br&gt;and exit" style="shape=note;whiteSpace=wrap;html=1;backgroundOutline=1;darkOpacity=0.05;" parent="o7PPtioLwJm91Y4R-C-H-1" vertex="1">
                    <mxGeometry x="560" y="280" width="120" height="80" as="geometry"/>
                </mxCell>
                <mxCell id="o7PPtioLwJm91Y4R-C-H-19" style="edgeStyle=orthogonalEdgeStyle;rounded=0;orthogonalLoop=1;jettySize=auto;html=1;exitX=1;exitY=0.5;exitDx=0;exitDy=0;entryX=0;entryY=0.5;entryDx=0;entryDy=0;" parent="o7PPtioLwJm91Y4R-C-H-1" source="o7PPtioLwJm91Y4R-C-H-17" target="o7PPtioLwJm91Y4R-C-H-18" edge="1">
                    <mxGeometry relative="1" as="geometry"/>
                </mxCell>
                <mxCell id="o7PPtioLwJm91Y4R-C-H-17" value="Population&lt;br&gt;database" style="shape=cylinder;whiteSpace=wrap;html=1;boundedLbl=1;backgroundOutline=1;" parent="o7PPtioLwJm91Y4R-C-H-1" vertex="1">
                    <mxGeometry x="200" y="520" width="120" height="80" as="geometry"/>
                </mxCell>
                <mxCell id="o7PPtioLwJm91Y4R-C-H-30" style="edgeStyle=orthogonalEdgeStyle;rounded=0;orthogonalLoop=1;jettySize=auto;html=1;exitX=0.5;exitY=1;exitDx=0;exitDy=0;entryX=0.5;entryY=0;entryDx=0;entryDy=0;" parent="o7PPtioLwJm91Y4R-C-H-1" source="o7PPtioLwJm91Y4R-C-H-18" target="o7PPtioLwJm91Y4R-C-H-26" edge="1">
                    <mxGeometry relative="1" as="geometry"/>
                </mxCell>
                <mxCell id="o7PPtioLwJm91Y4R-C-H-18" value="Search population&lt;br&gt;by birth date" style="rounded=0;whiteSpace=wrap;html=1;" parent="o7PPtioLwJm91Y4R-C-H-1" vertex="1">
                    <mxGeometry x="360" y="520" width="120" height="80" as="geometry"/>
                </mxCell>
                <mxCell id="o7PPtioLwJm91Y4R-C-H-29" style="edgeStyle=orthogonalEdgeStyle;rounded=0;orthogonalLoop=1;jettySize=auto;html=1;exitX=1;exitY=0.5;exitDx=0;exitDy=0;entryX=0.5;entryY=1;entryDx=0;entryDy=0;entryPerimeter=0;" parent="o7PPtioLwJm91Y4R-C-H-1" source="o7PPtioLwJm91Y4R-C-H-26" target="o7PPtioLwJm91Y4R-C-H-15" edge="1">
                    <mxGeometry relative="1" as="geometry"/>
                </mxCell>
                <mxCell id="o7PPtioLwJm91Y4R-C-H-44" value="no" style="edgeLabel;html=1;align=center;verticalAlign=middle;resizable=0;points=[];" parent="o7PPtioLwJm91Y4R-C-H-29" vertex="1" connectable="0">
                    <mxGeometry x="-0.7274" y="1" relative="1" as="geometry">
                        <mxPoint x="-5.14" y="0.99" as="offset"/>
                    </mxGeometry>
                </mxCell>
                <mxCell id="o7PPtioLwJm91Y4R-C-H-36" style="edgeStyle=orthogonalEdgeStyle;rounded=0;orthogonalLoop=1;jettySize=auto;html=1;exitX=0.5;exitY=1;exitDx=0;exitDy=0;entryX=0.5;entryY=0;entryDx=0;entryDy=0;" parent="o7PPtioLwJm91Y4R-C-H-1" source="o7PPtioLwJm91Y4R-C-H-26" target="o7PPtioLwJm91Y4R-C-H-34" edge="1">
                    <mxGeometry relative="1" as="geometry"/>
                </mxCell>
                <mxCell id="o7PPtioLwJm91Y4R-C-H-26" value="Students found?" style="ellipse;whiteSpace=wrap;html=1;aspect=fixed;" parent="o7PPtioLwJm91Y4R-C-H-1" vertex="1">
                    <mxGeometry x="380" y="640" width="80" height="80" as="geometry"/>
                </mxCell>
                <mxCell id="o7PPtioLwJm91Y4R-C-H-38" style="edgeStyle=orthogonalEdgeStyle;rounded=0;orthogonalLoop=1;jettySize=auto;html=1;exitX=0.5;exitY=1;exitDx=0;exitDy=0;entryX=0.5;entryY=0;entryDx=0;entryDy=0;" parent="o7PPtioLwJm91Y4R-C-H-1" source="o7PPtioLwJm91Y4R-C-H-34" target="o7PPtioLwJm91Y4R-C-H-37" edge="1">
                    <mxGeometry relative="1" as="geometry"/>
                </mxCell>
                <mxCell id="o7PPtioLwJm91Y4R-C-H-34" value="Search text&lt;br&gt;for names" style="rounded=0;whiteSpace=wrap;html=1;" parent="o7PPtioLwJm91Y4R-C-H-1" vertex="1">
                    <mxGeometry x="360" y="760" width="120" height="80" as="geometry"/>
                </mxCell>
                <mxCell id="o7PPtioLwJm91Y4R-C-H-39" style="edgeStyle=orthogonalEdgeStyle;rounded=0;orthogonalLoop=1;jettySize=auto;html=1;exitX=1;exitY=0.5;exitDx=0;exitDy=0;entryX=0.5;entryY=1;entryDx=0;entryDy=0;entryPerimeter=0;" parent="o7PPtioLwJm91Y4R-C-H-1" source="o7PPtioLwJm91Y4R-C-H-37" target="o7PPtioLwJm91Y4R-C-H-15" edge="1">
                    <mxGeometry relative="1" as="geometry"/>
                </mxCell>
                <mxCell id="o7PPtioLwJm91Y4R-C-H-46" value="no" style="edgeLabel;html=1;align=center;verticalAlign=middle;resizable=0;points=[];" parent="o7PPtioLwJm91Y4R-C-H-39" vertex="1" connectable="0">
                    <mxGeometry x="-0.831" relative="1" as="geometry">
                        <mxPoint y="-0.01" as="offset"/>
                    </mxGeometry>
                </mxCell>
                <mxCell id="o7PPtioLwJm91Y4R-C-H-43" style="edgeStyle=orthogonalEdgeStyle;rounded=0;orthogonalLoop=1;jettySize=auto;html=1;exitX=0.5;exitY=1;exitDx=0;exitDy=0;entryX=0.5;entryY=0;entryDx=0;entryDy=0;" parent="o7PPtioLwJm91Y4R-C-H-1" source="o7PPtioLwJm91Y4R-C-H-37" target="o7PPtioLwJm91Y4R-C-H-42" edge="1">
                    <mxGeometry relative="1" as="geometry"/>
                </mxCell>
                <mxCell id="o7PPtioLwJm91Y4R-C-H-37" value="At least one name&lt;br&gt;found?" style="ellipse;whiteSpace=wrap;html=1;aspect=fixed;" parent="o7PPtioLwJm91Y4R-C-H-1" vertex="1">
                    <mxGeometry x="380" y="880" width="80" height="80" as="geometry"/>
                </mxCell>
                <mxCell id="o7PPtioLwJm91Y4R-C-H-42" value="Process&lt;br&gt;search&lt;br&gt;results" style="shape=process;whiteSpace=wrap;html=1;backgroundOutline=1;" parent="o7PPtioLwJm91Y4R-C-H-1" vertex="1">
                    <mxGeometry x="360" y="1000" width="120" height="80" as="geometry"/>
                </mxCell>
            </root>
        </mxGraphModel>
    </diagram>
    <diagram id="gBJhi-CYLWCV6MzVUkvj" name="process search results">
        <mxGraphModel dx="799" dy="663" grid="1" gridSize="10" guides="1" tooltips="1" connect="1" arrows="1" fold="1" page="1" pageScale="1" pageWidth="850" pageHeight="1100" math="0" shadow="0">
            <root>
                <mxCell id="vqH2cecyx5c3MDHXzUx--0"/>
                <mxCell id="vqH2cecyx5c3MDHXzUx--1" parent="vqH2cecyx5c3MDHXzUx--0"/>
                <mxCell id="pEkEch0gE6Ih2ToC54kg-2" style="edgeStyle=orthogonalEdgeStyle;rounded=0;orthogonalLoop=1;jettySize=auto;html=1;exitX=1;exitY=0.5;exitDx=0;exitDy=0;entryX=0;entryY=0.5;entryDx=0;entryDy=0;" parent="vqH2cecyx5c3MDHXzUx--1" source="GtzwkO9TtUQu69V3Sq_b-0" target="wlq_eFnl21UUApRdpapa-3" edge="1">
                    <mxGeometry relative="1" as="geometry"/>
                </mxCell>
                <mxCell id="GtzwkO9TtUQu69V3Sq_b-0" value="Search&lt;br&gt;results" style="rounded=1;whiteSpace=wrap;html=1;" parent="vqH2cecyx5c3MDHXzUx--1" vertex="1">
                    <mxGeometry x="40" y="40" width="120" height="80" as="geometry"/>
                </mxCell>
                <mxCell id="gJMQ-DvtdsMSQ0ncnqwh-4" value="" style="edgeStyle=orthogonalEdgeStyle;rounded=0;orthogonalLoop=1;jettySize=auto;html=1;" parent="vqH2cecyx5c3MDHXzUx--1" source="2jK05yiLtZNlvFL7ZgjB-0" target="wlq_eFnl21UUApRdpapa-0" edge="1">
                    <mxGeometry relative="1" as="geometry"/>
                </mxCell>
                <mxCell id="gJMQ-DvtdsMSQ0ncnqwh-20" value="yes" style="edgeLabel;html=1;align=center;verticalAlign=middle;resizable=0;points=[];" parent="gJMQ-DvtdsMSQ0ncnqwh-4" vertex="1" connectable="0">
                    <mxGeometry x="-0.2753" relative="1" as="geometry">
                        <mxPoint x="-3.45" as="offset"/>
                    </mxGeometry>
                </mxCell>
                <mxCell id="Jz7Lx4GVMu8L7BJ4GWNq-1" value="" style="edgeStyle=orthogonalEdgeStyle;rounded=0;orthogonalLoop=1;jettySize=auto;html=1;" edge="1" parent="vqH2cecyx5c3MDHXzUx--1" source="2jK05yiLtZNlvFL7ZgjB-0" target="Jz7Lx4GVMu8L7BJ4GWNq-0">
                    <mxGeometry relative="1" as="geometry"/>
                </mxCell>
                <mxCell id="2jK05yiLtZNlvFL7ZgjB-0" value="Results &amp;gt; 1?" style="ellipse;whiteSpace=wrap;html=1;aspect=fixed;" parent="vqH2cecyx5c3MDHXzUx--1" vertex="1">
                    <mxGeometry x="220" y="280" width="80" height="80" as="geometry"/>
                </mxCell>
                <mxCell id="gJMQ-DvtdsMSQ0ncnqwh-5" value="" style="edgeStyle=orthogonalEdgeStyle;rounded=0;orthogonalLoop=1;jettySize=auto;html=1;" parent="vqH2cecyx5c3MDHXzUx--1" source="wlq_eFnl21UUApRdpapa-0" target="80aDG0RBbNLPTDQ7DMa1-4" edge="1">
                    <mxGeometry relative="1" as="geometry"/>
                </mxCell>
                <mxCell id="wlq_eFnl21UUApRdpapa-0" value="More than&lt;br&gt;1 student?" style="ellipse;whiteSpace=wrap;html=1;aspect=fixed;" parent="vqH2cecyx5c3MDHXzUx--1" vertex="1">
                    <mxGeometry x="420" y="280" width="80" height="80" as="geometry"/>
                </mxCell>
                <mxCell id="gJMQ-DvtdsMSQ0ncnqwh-12" style="edgeStyle=orthogonalEdgeStyle;rounded=0;orthogonalLoop=1;jettySize=auto;html=1;entryX=0;entryY=0.5;entryDx=0;entryDy=0;" parent="vqH2cecyx5c3MDHXzUx--1" source="wlq_eFnl21UUApRdpapa-1" target="gJMQ-DvtdsMSQ0ncnqwh-7" edge="1">
                    <mxGeometry relative="1" as="geometry"/>
                </mxCell>
                <mxCell id="gJMQ-DvtdsMSQ0ncnqwh-21" value="yes" style="edgeLabel;html=1;align=center;verticalAlign=middle;resizable=0;points=[];" parent="gJMQ-DvtdsMSQ0ncnqwh-12" vertex="1" connectable="0">
                    <mxGeometry x="-0.2269" y="1" relative="1" as="geometry">
                        <mxPoint y="1" as="offset"/>
                    </mxGeometry>
                </mxCell>
                <mxCell id="gJMQ-DvtdsMSQ0ncnqwh-17" value="" style="edgeStyle=orthogonalEdgeStyle;rounded=0;orthogonalLoop=1;jettySize=auto;html=1;" parent="vqH2cecyx5c3MDHXzUx--1" source="wlq_eFnl21UUApRdpapa-1" target="gJMQ-DvtdsMSQ0ncnqwh-16" edge="1">
                    <mxGeometry relative="1" as="geometry"/>
                </mxCell>
                <mxCell id="wlq_eFnl21UUApRdpapa-1" value="Central?" style="ellipse;whiteSpace=wrap;html=1;aspect=fixed;" parent="vqH2cecyx5c3MDHXzUx--1" vertex="1">
                    <mxGeometry x="220" y="520" width="80" height="80" as="geometry"/>
                </mxCell>
                <mxCell id="pEkEch0gE6Ih2ToC54kg-3" style="edgeStyle=orthogonalEdgeStyle;rounded=0;orthogonalLoop=1;jettySize=auto;html=1;exitX=0.5;exitY=1;exitDx=0;exitDy=0;entryX=0.5;entryY=0;entryDx=0;entryDy=0;" parent="vqH2cecyx5c3MDHXzUx--1" source="wlq_eFnl21UUApRdpapa-3" target="pEkEch0gE6Ih2ToC54kg-0" edge="1">
                    <mxGeometry relative="1" as="geometry"/>
                </mxCell>
                <mxCell id="wlq_eFnl21UUApRdpapa-3" value="Remove&lt;br&gt;cancelled&lt;br&gt;applications" style="rounded=0;whiteSpace=wrap;html=1;" parent="vqH2cecyx5c3MDHXzUx--1" vertex="1">
                    <mxGeometry x="200" y="40" width="120" height="80" as="geometry"/>
                </mxCell>
                <mxCell id="80aDG0RBbNLPTDQ7DMa1-2" style="edgeStyle=orthogonalEdgeStyle;rounded=0;orthogonalLoop=1;jettySize=auto;html=1;exitX=0.5;exitY=1;exitDx=0;exitDy=0;entryX=0.5;entryY=0;entryDx=0;entryDy=0;" parent="vqH2cecyx5c3MDHXzUx--1" source="pEkEch0gE6Ih2ToC54kg-0" target="2jK05yiLtZNlvFL7ZgjB-0" edge="1">
                    <mxGeometry relative="1" as="geometry"/>
                </mxCell>
                <mxCell id="gJMQ-DvtdsMSQ0ncnqwh-0" value="" style="edgeStyle=orthogonalEdgeStyle;rounded=0;orthogonalLoop=1;jettySize=auto;html=1;" parent="vqH2cecyx5c3MDHXzUx--1" source="pEkEch0gE6Ih2ToC54kg-0" target="80aDG0RBbNLPTDQ7DMa1-4" edge="1">
                    <mxGeometry relative="1" as="geometry"/>
                </mxCell>
                <mxCell id="gJMQ-DvtdsMSQ0ncnqwh-19" value="yes" style="edgeLabel;html=1;align=center;verticalAlign=middle;resizable=0;points=[];" parent="gJMQ-DvtdsMSQ0ncnqwh-0" vertex="1" connectable="0">
                    <mxGeometry x="-0.2683" y="2" relative="1" as="geometry">
                        <mxPoint x="3.45" y="2" as="offset"/>
                    </mxGeometry>
                </mxCell>
                <mxCell id="pEkEch0gE6Ih2ToC54kg-0" value="Results == 0?" style="ellipse;whiteSpace=wrap;html=1;aspect=fixed;" parent="vqH2cecyx5c3MDHXzUx--1" vertex="1">
                    <mxGeometry x="220" y="160" width="80" height="80" as="geometry"/>
                </mxCell>
                <mxCell id="80aDG0RBbNLPTDQ7DMa1-0" value="Log&lt;br&gt;and exit" style="shape=note;whiteSpace=wrap;html=1;backgroundOutline=1;darkOpacity=0.05;" parent="vqH2cecyx5c3MDHXzUx--1" vertex="1">
                    <mxGeometry x="600" y="160" width="120" height="80" as="geometry"/>
                </mxCell>
                <mxCell id="gJMQ-DvtdsMSQ0ncnqwh-1" value="" style="edgeStyle=orthogonalEdgeStyle;rounded=0;orthogonalLoop=1;jettySize=auto;html=1;" parent="vqH2cecyx5c3MDHXzUx--1" source="80aDG0RBbNLPTDQ7DMa1-4" target="80aDG0RBbNLPTDQ7DMa1-0" edge="1">
                    <mxGeometry relative="1" as="geometry"/>
                </mxCell>
                <mxCell id="80aDG0RBbNLPTDQ7DMa1-4" value="Move to&lt;br&gt;manual check" style="rounded=0;whiteSpace=wrap;html=1;" parent="vqH2cecyx5c3MDHXzUx--1" vertex="1">
                    <mxGeometry x="400" y="160" width="120" height="80" as="geometry"/>
                </mxCell>
                <mxCell id="gJMQ-DvtdsMSQ0ncnqwh-13" style="edgeStyle=orthogonalEdgeStyle;rounded=0;orthogonalLoop=1;jettySize=auto;html=1;entryX=0.5;entryY=1;entryDx=0;entryDy=0;entryPerimeter=0;" parent="vqH2cecyx5c3MDHXzUx--1" source="gJMQ-DvtdsMSQ0ncnqwh-7" target="80aDG0RBbNLPTDQ7DMa1-0" edge="1">
                    <mxGeometry relative="1" as="geometry"/>
                </mxCell>
                <mxCell id="gJMQ-DvtdsMSQ0ncnqwh-7" value="Move to&lt;br&gt;be processed" style="rounded=0;whiteSpace=wrap;html=1;" parent="vqH2cecyx5c3MDHXzUx--1" vertex="1">
                    <mxGeometry x="400" y="520" width="120" height="80" as="geometry"/>
                </mxCell>
                <mxCell id="gJMQ-DvtdsMSQ0ncnqwh-18" style="edgeStyle=orthogonalEdgeStyle;rounded=0;orthogonalLoop=1;jettySize=auto;html=1;entryX=0.5;entryY=1;entryDx=0;entryDy=0;entryPerimeter=0;" parent="vqH2cecyx5c3MDHXzUx--1" source="gJMQ-DvtdsMSQ0ncnqwh-16" target="80aDG0RBbNLPTDQ7DMa1-0" edge="1">
                    <mxGeometry relative="1" as="geometry">
                        <mxPoint x="620" y="240" as="targetPoint"/>
                    </mxGeometry>
                </mxCell>
                <mxCell id="gJMQ-DvtdsMSQ0ncnqwh-16" value="Forward to&lt;br&gt;faculty or&lt;br&gt;faculties" style="rounded=0;whiteSpace=wrap;html=1;" parent="vqH2cecyx5c3MDHXzUx--1" vertex="1">
                    <mxGeometry x="200" y="640" width="120" height="80" as="geometry"/>
                </mxCell>
                <mxCell id="Jz7Lx4GVMu8L7BJ4GWNq-2" value="" style="edgeStyle=orthogonalEdgeStyle;rounded=0;orthogonalLoop=1;jettySize=auto;html=1;" edge="1" parent="vqH2cecyx5c3MDHXzUx--1" source="Jz7Lx4GVMu8L7BJ4GWNq-0" target="wlq_eFnl21UUApRdpapa-1">
                    <mxGeometry relative="1" as="geometry"/>
                </mxCell>
                <mxCell id="Jz7Lx4GVMu8L7BJ4GWNq-0" value="Annotate&lt;br&gt;result" style="rounded=0;whiteSpace=wrap;html=1;" vertex="1" parent="vqH2cecyx5c3MDHXzUx--1">
                    <mxGeometry x="200" y="400" width="120" height="80" as="geometry"/>
                </mxCell>
            </root>
        </mxGraphModel>
    </diagram>
</mxfile>
